<svg width="220" height="48" viewBox="0 0 220 48" fill="none" xmlns="http://www.w3.org/2000/svg">
  <defs>
    <linearGradient id="qc-gradient" x1="0" y1="0" x2="1" y2="1">
      <stop offset="0%" stop-color="#2563EB" />
      <stop offset="100%" stop-color="#9333EA" />
    </linearGradient>
    <filter id="qc-shadow" x="-20%" y="-20%" width="140%" height="140%">
      <feDropShadow dx="0" dy="2" stdDeviation="3" flood-color="#1f2933" flood-opacity="0.18" />
    </filter>
  </defs>
  <g filter="url(#qc-shadow)">
    <path d="M16 6h20c5.523 0 10 4.477 10 10v8c0 5.523-4.477 10-10 10h-6l-6.8 6.4c-1.6 1.507-4.2.33-4.2-1.82V34h-3c-5.523 0-10-4.477-10-10v-8c0-5.523 4.477-10 10-10Z" fill="url(#qc-gradient)" />
    <polygon points="23,24 23,16 31,20" fill="#ffffff" opacity="0.95" />
    <rect x="32" y="14" width="12" height="12" rx="6" fill="#ffffff" opacity="0.15" />
  </g>
  <text x="64" y="30" font-family="'Inter','Segoe UI',Roboto,Helvetica,Arial,sans-serif" font-size="20" font-weight="600" fill="#111827">
    Quick
  </text>
  <text x="130" y="30" font-family="'Inter','Segoe UI',Roboto,Helvetica,Arial,sans-serif" font-size="20" font-weight="500" fill="#4B5563">
    Caption
  </text>
</svg>
